<svg width="52" height="52" viewBox="0 0 52 52" fill="none" xmlns="http://www.w3.org/2000/svg">
<path d="M28.6728 0.00319892C30.57 -0.00408141 32.4673 0.0149866 34.3639 0.0603972L34.8683 0.0785965C35.4507 0.0993958 36.0252 0.125395 36.7194 0.156594C39.4857 0.286589 41.3732 0.723375 43.0293 1.36555C44.7452 2.02593 46.1907 2.9203 47.6363 4.36585C48.958 5.66478 49.9809 7.23601 50.6339 8.97029C51.2761 10.6264 51.7129 12.5166 51.8428 15.2829C51.874 15.9745 51.9 16.5516 51.9208 17.134L51.9364 17.6384C51.9826 19.5342 52.0026 21.4306 51.9962 23.327L51.9988 25.2665V28.6724C52.0052 30.5697 51.9853 32.4669 51.939 34.3636L51.9234 34.868C51.9026 35.4504 51.8766 36.025 51.8454 36.7191C51.7155 39.4855 51.2735 41.373 50.6339 43.0291C49.983 44.7653 48.9598 46.3378 47.6363 47.6362C46.3362 48.9578 44.7642 49.9807 43.0293 50.6339C41.3732 51.2761 39.4857 51.7128 36.7194 51.8428C36.0252 51.874 35.4507 51.9 34.8683 51.9208L34.3639 51.9364C32.4673 51.9826 30.57 52.0026 28.6728 51.9962L26.7333 51.9988H23.3301C21.4329 52.0052 19.5357 51.9853 17.639 51.939L17.1346 51.9234C16.5174 51.9011 15.9004 51.8751 15.2835 51.8454C12.5173 51.7154 10.6298 51.2735 8.97104 50.6339C7.23611 49.9822 5.66463 48.9591 4.36668 47.6362C3.04346 46.337 2.01958 44.7647 1.36643 43.0291C0.724263 41.373 0.287485 39.4855 0.157492 36.7191C0.128537 36.1022 0.102538 35.4852 0.079496 34.868L0.066497 34.3636C0.0185648 32.467 -0.00310306 30.5697 0.00150012 28.6724V23.327C-0.00575601 21.4306 0.0133117 19.5342 0.0586974 17.6384L0.0768964 17.134C0.0976953 16.5516 0.123694 15.9745 0.154892 15.2829C0.284886 12.514 0.721663 10.629 1.36383 8.97029C2.01737 7.23517 3.04325 5.66436 4.36928 4.36845C5.66634 3.04445 7.23683 2.01962 8.97104 1.36555C10.6298 0.723375 12.5147 0.286589 15.2835 0.156594L17.1346 0.0785965L17.639 0.0655972C19.5348 0.0176882 21.4311 -0.00398008 23.3275 0.000599196L28.6728 0.00319892ZM26.0002 13.0028C24.2778 12.9784 22.5677 13.2966 20.9694 13.9389C19.371 14.5812 17.9163 15.5348 16.6896 16.7442C15.463 17.9536 14.489 19.3947 13.8242 20.9839C13.1594 22.573 12.817 24.2784 12.817 26.001C12.817 27.7236 13.1594 29.429 13.8242 31.0182C14.489 32.6073 15.463 34.0484 16.6896 35.2579C17.9163 36.4673 19.371 37.4208 20.9694 38.0631C22.5677 38.7054 24.2778 39.0236 26.0002 38.9993C29.4478 38.9993 32.7542 37.6297 35.1921 35.1918C37.6299 32.7539 38.9995 29.4474 38.9995 25.9997C38.9995 22.552 37.6299 19.2455 35.1921 16.8076C32.7542 14.3697 29.4478 13.0028 26.0002 13.0028ZM26.0002 18.2026C27.0362 18.1835 28.0657 18.371 29.0285 18.7543C29.9912 19.1376 30.868 19.7088 31.6075 20.4347C32.347 21.1606 32.9345 22.0266 33.3355 22.9821C33.7366 23.9376 33.9433 24.9634 33.9435 25.9997C33.9436 27.0359 33.7373 28.0619 33.3366 29.0175C32.9358 29.9731 32.3486 30.8393 31.6094 31.5654C30.8701 32.2916 29.9935 32.8631 29.0309 33.2467C28.0683 33.6303 27.0388 33.8182 26.0028 33.7994C23.9342 33.7994 21.9503 32.9777 20.4876 31.515C19.0249 30.0522 18.2032 28.0683 18.2032 25.9997C18.2032 23.9311 19.0249 21.9472 20.4876 20.4845C21.9503 19.0217 23.9342 18.2 26.0028 18.2L26.0002 18.2026ZM39.6495 9.10289C38.8107 9.13646 38.0175 9.49327 37.436 10.0986C36.8544 10.7039 36.5296 11.5108 36.5296 12.3502C36.5296 13.1896 36.8544 13.9965 37.436 14.6018C38.0175 15.2071 38.8107 15.5639 39.6495 15.5975C40.5114 15.5975 41.338 15.2551 41.9474 14.6456C42.5569 14.0361 42.8993 13.2095 42.8993 12.3476C42.8993 11.4857 42.5569 10.659 41.9474 10.0496C41.338 9.44009 40.5114 9.09769 39.6495 9.09769V9.10289Z" fill="#6A6D9E"/>
</svg>
