<svg width="21" height="18" viewBox="0 0 21 18" fill="none" xmlns="http://www.w3.org/2000/svg">
<path d="M11.8906 13V14C11.8906 14.7956 11.5746 15.5587 11.0119 16.1213C10.4493 16.6839 9.68627 17 8.89062 17H4.89062C4.09498 17 3.33191 16.6839 2.7693 16.1213C2.2067 15.5587 1.89063 14.7956 1.89062 14V4C1.89063 3.20435 2.2067 2.44129 2.7693 1.87868C3.33191 1.31607 4.09498 1 4.89062 1H8.89062C9.68627 1 10.4493 1.31607 11.0119 1.87868C11.5746 2.44129 11.8906 3.20435 11.8906 4V5M15.8906 13L19.8906 9L15.8906 13ZM19.8906 9L15.8906 5L19.8906 9ZM19.8906 9H5.89062H19.8906Z" stroke="#FF6550" stroke-width="2" stroke-linecap="round" stroke-linejoin="round"/>
</svg>
