<svg width="19" height="19" viewBox="0 0 19 19" fill="none" xmlns="http://www.w3.org/2000/svg">
<path d="M9.4974 10.0937C6.98781 10.0937 4.94531 8.05117 4.94531 5.54159C4.94531 3.032 6.98781 0.989502 9.4974 0.989502C12.007 0.989502 14.0495 3.032 14.0495 5.54159C14.0495 8.05117 12.007 10.0937 9.4974 10.0937ZM9.4974 2.177C7.6449 2.177 6.13281 3.68909 6.13281 5.54159C6.13281 7.39409 7.6449 8.90617 9.4974 8.90617C11.3499 8.90617 12.862 7.39409 12.862 5.54159C12.862 3.68909 11.3499 2.177 9.4974 2.177Z" fill="white"/>
<path d="M16.2981 18.0104C15.9735 18.0104 15.7043 17.7412 15.7043 17.4166C15.7043 14.6854 12.9177 12.4687 9.49768 12.4687C6.07768 12.4687 3.29102 14.6854 3.29102 17.4166C3.29102 17.7412 3.02185 18.0104 2.69727 18.0104C2.37268 18.0104 2.10352 17.7412 2.10352 17.4166C2.10352 14.0362 5.4206 11.2812 9.49768 11.2812C13.5748 11.2812 16.8918 14.0362 16.8918 17.4166C16.8918 17.7412 16.6227 18.0104 16.2981 18.0104Z" fill="white"/>
</svg>
