<svg width="21" height="21" viewBox="0 0 21 21" fill="none" xmlns="http://www.w3.org/2000/svg">
<path fill-rule="evenodd" clip-rule="evenodd" d="M9.49137 1.5308C5.09432 1.5308 1.5307 5.09464 1.5307 9.49196C1.5307 13.8893 5.09432 17.4531 9.49137 17.4531C13.8875 17.4531 17.452 13.8892 17.452 9.49196C17.452 5.09469 13.8875 1.5308 9.49137 1.5308ZM0.00195312 9.49196C0.00195312 4.25028 4.25001 0.00195312 9.49137 0.00195312C14.7317 0.00195312 18.9808 4.25022 18.9808 9.49196C18.9808 14.7337 14.7317 18.982 9.49137 18.982C4.25001 18.982 0.00195312 14.7336 0.00195312 9.49196Z" fill="#070721"/>
<path fill-rule="evenodd" clip-rule="evenodd" d="M18.28 17.6075C17.9078 17.6075 17.6059 17.9101 17.6059 18.2806C17.6059 18.6531 17.9078 18.9548 18.28 18.9548C18.6515 18.9548 18.9531 18.6538 18.9531 18.2806C18.9531 17.9094 18.6515 17.6075 18.28 17.6075ZM16.0771 18.2806C16.0771 17.0651 17.0642 16.0786 18.28 16.0786C19.4965 16.0786 20.4819 17.0657 20.4819 18.2806C20.4819 19.4975 19.4965 20.4836 18.28 20.4836C17.0642 20.4836 16.0771 19.4982 16.0771 18.2806Z" fill="#070721"/>
</svg>
