<svg width="19" height="19" viewBox="0 0 19 19" fill="none" xmlns="http://www.w3.org/2000/svg">
<path fill-rule="evenodd" clip-rule="evenodd" d="M7.42553 6.44744C7.05134 6.46823 6.76485 6.78842 6.78564 7.1626L7.12493 13.2697C7.14572 13.6439 7.46591 13.9304 7.8401 13.9096C8.21428 13.8888 8.50077 13.5687 8.47998 13.1945L8.1407 7.08732C8.11991 6.71314 7.79972 6.42665 7.42553 6.44744Z" fill="white"/>
<path fill-rule="evenodd" clip-rule="evenodd" d="M11.5722 6.44744C11.9464 6.46823 12.2329 6.78842 12.2121 7.1626L11.8728 13.2697C11.8521 13.6439 11.5319 13.9304 11.1577 13.9096C10.7835 13.8888 10.497 13.5687 10.5178 13.1945L10.8571 7.08732C10.8779 6.71314 11.1981 6.42665 11.5722 6.44744Z" fill="white"/>
<path fill-rule="evenodd" clip-rule="evenodd" d="M2.37388 3.39282C1.99912 3.39282 1.69531 3.69663 1.69531 4.07139C1.69531 4.44616 1.99912 4.74996 2.37388 4.74996H3.11765L3.99812 13.451C4.04822 13.9462 4.08973 14.3565 4.15006 14.6903C4.21296 15.0383 4.30442 15.3554 4.48161 15.6497C4.75794 16.1088 5.16399 16.4759 5.64857 16.7046C5.95928 16.8512 6.28395 16.9103 6.63649 16.9378C6.97471 16.9643 7.38713 16.9643 7.88482 16.9643H11.1129C11.6106 16.9643 12.0231 16.9643 12.3613 16.9378C12.7138 16.9103 13.0385 16.8512 13.3492 16.7046C13.8338 16.4759 14.2398 16.1088 14.5162 15.6497C14.6933 15.3554 14.7848 15.0383 14.8477 14.6903C14.908 14.3565 14.9496 13.9462 14.9996 13.451L15.8801 4.74996H16.6239C16.9986 4.74996 17.3025 4.44616 17.3025 4.07139C17.3025 3.69663 16.9986 3.39282 16.6239 3.39282H12.4768C12.1682 2.03297 10.9521 1.01782 9.49888 1.01782C8.04566 1.01782 6.82955 2.03297 6.52098 3.39282H2.37388ZM5.34571 13.2881C5.39914 13.8162 5.43578 14.1735 5.48557 14.4489C5.53387 14.7162 5.58624 14.8533 5.64436 14.9499C5.78253 15.1794 5.98555 15.3629 6.22784 15.4773C6.32976 15.5254 6.47146 15.5637 6.74219 15.5848C7.02129 15.6066 7.38046 15.6071 7.91118 15.6071H11.0866C11.6173 15.6071 11.9765 15.6066 12.2556 15.5848C12.5263 15.5637 12.668 15.5254 12.7699 15.4773C13.0122 15.3629 13.2152 15.1794 13.3534 14.9499C13.4115 14.8533 13.4639 14.7162 13.5122 14.4489C13.562 14.1735 13.5986 13.8162 13.6521 13.2881L14.516 4.74996H4.48173L5.34571 13.2881ZM9.49888 2.37497C8.80324 2.37497 8.20539 2.79368 7.94361 3.39282H11.0542C10.7924 2.79368 10.1945 2.37497 9.49888 2.37497Z" fill="white"/>
</svg>
