<svg width="19" height="19" viewBox="0 0 19 19" fill="none" xmlns="http://www.w3.org/2000/svg">
<path d="M4.16769 4.16712C4.44594 3.88887 4.89707 3.88887 5.17532 4.16712L9.50066 8.49249L13.826 4.16714C14.1043 3.88889 14.5554 3.88889 14.8337 4.16714C15.1119 4.44539 15.1119 4.89652 14.8337 5.17477L10.5083 9.50012L14.8336 13.8255C15.1119 14.1037 15.1119 14.5549 14.8336 14.8331C14.5554 15.1114 14.1043 15.1114 13.826 14.8331L9.50066 10.5077L5.1753 14.8331C4.89705 15.1113 4.44592 15.1113 4.16767 14.8331C3.88942 14.5548 3.88942 14.1037 4.16767 13.8255L8.49303 9.50011L4.16769 5.17475C3.88944 4.8965 3.88944 4.44537 4.16769 4.16712Z" fill="white"/>
</svg>
